<svg width="40" height="40" viewBox="0 0 40 40" fill="none" xmlns="http://www.w3.org/2000/svg">
<circle cx="20" cy="20" r="20" fill="#1F2123"/>
<path opacity="0.4" fill-rule="evenodd" clip-rule="evenodd" d="M26 20.4999H21V25.5002C21 26.0521 20.5523 26.5 20 26.5C19.4478 26.5 19 26.0521 19 25.5002V20.4999H14.0001C13.4477 20.4999 13 20.0523 13 19.5C13 18.9479 13.4477 18.5001 14.0001 18.5001H19V13.4999C19 12.9477 19.4478 12.5 20 12.5C20.5523 12.5 21 12.9477 21 13.4999V18.5001H26C26.5523 18.5001 27 18.9479 27 19.5C27 20.0523 26.5523 20.4999 26 20.4999Z" fill="white"/>
</svg>
