<svg width="14" height="20" viewBox="0 0 14 20" fill="none" xmlns="http://www.w3.org/2000/svg">
<path opacity="0.4" fill-rule="evenodd" clip-rule="evenodd" d="M5.52284 20.0003C5.18387 20.0003 4.90908 19.7205 4.90908 19.3753C4.90908 19.0302 5.18387 18.7504 5.52284 18.7504H6.13642V17.4723C3.10673 17.1938 0.541663 14.8744 0 11.8752H1.22734C1.78593 14.3794 4.12235 16.2502 6.75008 16.2502C9.37773 16.2502 11.7141 14.3794 12.2727 11.8752H13.5001C12.9583 14.8744 10.3933 17.1938 7.36366 17.4723V18.7504H7.97732C8.3162 18.7504 8.591 19.0302 8.591 19.3753C8.591 19.7205 8.3162 20.0003 7.97732 20.0003H5.52284ZM6.75008 15.0004C4.3777 15.0004 2.45458 13.0416 2.45458 10.6254V4.37547C2.45458 1.9592 4.3777 0.000244141 6.75008 0.000244141C9.12229 0.000244141 11.0455 1.9592 11.0455 4.37547V10.6254C11.0455 13.0416 9.12229 15.0004 6.75008 15.0004ZM9.81824 4.37547C9.81824 2.64956 8.44454 1.25028 6.75008 1.25028C5.05553 1.25028 3.68184 2.64956 3.68184 4.37547V10.6254C3.68184 12.3513 5.05553 13.7503 6.75008 13.7503C8.44454 13.7503 9.81824 12.3513 9.81824 10.6254V4.37547Z" fill="black"/>
</svg>
